<mxfile host="app.diagrams.net" modified="2020-11-24T02:57:30.532Z" agent="5.0 (Windows NT 6.1; Win64; x64) AppleWebKit/537.36 (KHTML, like Gecko) Chrome/86.0.4240.111 Safari/537.36" etag="J6aufdwa0fUL9ac9rwy3" version="13.10.0" type="github">
  <diagram id="yriyUzEhdFasgpiKPf45" name="第 1 页">
    <mxGraphModel dx="852" dy="404" grid="1" gridSize="10" guides="1" tooltips="1" connect="1" arrows="1" fold="1" page="1" pageScale="1" pageWidth="827" pageHeight="1169" math="0" shadow="0">
      <root>
        <mxCell id="0" />
        <mxCell id="1" parent="0" />
        <mxCell id="ZaWYZGu5GzmUOSu4dOFm-1" value="&lt;font style=&quot;font-size: 25px&quot;&gt;&lt;b&gt;并发进程共享CPU&lt;/b&gt;&lt;/font&gt;" style="text;html=1;strokeColor=none;fillColor=none;align=center;verticalAlign=middle;whiteSpace=wrap;rounded=0;" vertex="1" parent="1">
          <mxGeometry x="60" y="170" width="250" height="20" as="geometry" />
        </mxCell>
        <mxCell id="ZaWYZGu5GzmUOSu4dOFm-2" value="&lt;font style=&quot;font-size: 18px&quot;&gt;并发进程可能无法一次执行完毕，会走走停停&lt;/font&gt;" style="text;html=1;strokeColor=none;fillColor=none;align=center;verticalAlign=middle;whiteSpace=wrap;rounded=0;" vertex="1" parent="1">
          <mxGeometry x="170" y="210" width="410" height="10" as="geometry" />
        </mxCell>
        <mxCell id="ZaWYZGu5GzmUOSu4dOFm-3" value="&lt;font style=&quot;font-size: 18px&quot;&gt;一个进程在执行过程中可能会被另一个进程替换和占有CPU，这个过程称作，进程切换&lt;/font&gt;" style="text;html=1;strokeColor=none;fillColor=none;align=left;verticalAlign=middle;whiteSpace=wrap;rounded=0;" vertex="1" parent="1">
          <mxGeometry x="190" y="250" width="370" height="20" as="geometry" />
        </mxCell>
        <mxCell id="ZaWYZGu5GzmUOSu4dOFm-4" value="process 1" style="rounded=0;whiteSpace=wrap;html=1;" vertex="1" parent="1">
          <mxGeometry x="80" y="320" width="130" height="40" as="geometry" />
        </mxCell>
        <mxCell id="ZaWYZGu5GzmUOSu4dOFm-5" value="" style="endArrow=none;html=1;strokeWidth=4;" edge="1" parent="1">
          <mxGeometry width="50" height="50" relative="1" as="geometry">
            <mxPoint x="210" y="339.5" as="sourcePoint" />
            <mxPoint x="290" y="339.5" as="targetPoint" />
          </mxGeometry>
        </mxCell>
        <mxCell id="ZaWYZGu5GzmUOSu4dOFm-6" value="" style="endArrow=none;html=1;strokeWidth=4;dashed=1;strokeColor=#FF0000;" edge="1" parent="1">
          <mxGeometry width="50" height="50" relative="1" as="geometry">
            <mxPoint x="300" y="339.5" as="sourcePoint" />
            <mxPoint x="350" y="340" as="targetPoint" />
          </mxGeometry>
        </mxCell>
        <mxCell id="ZaWYZGu5GzmUOSu4dOFm-7" value="" style="endArrow=none;html=1;strokeWidth=4;" edge="1" parent="1">
          <mxGeometry width="50" height="50" relative="1" as="geometry">
            <mxPoint x="360" y="339.5" as="sourcePoint" />
            <mxPoint x="440" y="339.5" as="targetPoint" />
          </mxGeometry>
        </mxCell>
        <mxCell id="ZaWYZGu5GzmUOSu4dOFm-8" value="" style="endArrow=none;html=1;strokeWidth=4;dashed=1;strokeColor=#FF3333;" edge="1" parent="1">
          <mxGeometry width="50" height="50" relative="1" as="geometry">
            <mxPoint x="450" y="339.5" as="sourcePoint" />
            <mxPoint x="530" y="339.5" as="targetPoint" />
          </mxGeometry>
        </mxCell>
        <mxCell id="ZaWYZGu5GzmUOSu4dOFm-9" value="" style="endArrow=none;html=1;strokeWidth=4;" edge="1" parent="1">
          <mxGeometry width="50" height="50" relative="1" as="geometry">
            <mxPoint x="540" y="339.5" as="sourcePoint" />
            <mxPoint x="650" y="339.5" as="targetPoint" />
            <Array as="points" />
          </mxGeometry>
        </mxCell>
        <mxCell id="ZaWYZGu5GzmUOSu4dOFm-10" value="finish&lt;br&gt;" style="shape=tape;whiteSpace=wrap;html=1;" vertex="1" parent="1">
          <mxGeometry x="660" y="290" width="40" height="60" as="geometry" />
        </mxCell>
        <mxCell id="ZaWYZGu5GzmUOSu4dOFm-11" value="process 2" style="rounded=0;whiteSpace=wrap;html=1;" vertex="1" parent="1">
          <mxGeometry x="80" y="420" width="130" height="40" as="geometry" />
        </mxCell>
        <mxCell id="ZaWYZGu5GzmUOSu4dOFm-12" value="" style="endArrow=none;html=1;strokeWidth=4;" edge="1" parent="1">
          <mxGeometry width="50" height="50" relative="1" as="geometry">
            <mxPoint x="300" y="440" as="sourcePoint" />
            <mxPoint x="360" y="440" as="targetPoint" />
            <Array as="points" />
          </mxGeometry>
        </mxCell>
        <mxCell id="ZaWYZGu5GzmUOSu4dOFm-13" value="" style="endArrow=none;html=1;strokeWidth=4;dashed=1;strokeColor=#FF0000;" edge="1" parent="1">
          <mxGeometry width="50" height="50" relative="1" as="geometry">
            <mxPoint x="210" y="439.5" as="sourcePoint" />
            <mxPoint x="300" y="440" as="targetPoint" />
          </mxGeometry>
        </mxCell>
        <mxCell id="ZaWYZGu5GzmUOSu4dOFm-15" value="" style="endArrow=none;html=1;strokeWidth=4;dashed=1;strokeColor=#FF3333;" edge="1" parent="1">
          <mxGeometry width="50" height="50" relative="1" as="geometry">
            <mxPoint x="370" y="440" as="sourcePoint" />
            <mxPoint x="720" y="440" as="targetPoint" />
          </mxGeometry>
        </mxCell>
        <mxCell id="ZaWYZGu5GzmUOSu4dOFm-16" value="" style="endArrow=none;html=1;strokeWidth=4;entryX=-0.05;entryY=0.8;entryDx=0;entryDy=0;entryPerimeter=0;" edge="1" parent="1" target="ZaWYZGu5GzmUOSu4dOFm-17">
          <mxGeometry width="50" height="50" relative="1" as="geometry">
            <mxPoint x="720" y="438" as="sourcePoint" />
            <mxPoint x="650" y="439.5" as="targetPoint" />
            <Array as="points" />
          </mxGeometry>
        </mxCell>
        <mxCell id="ZaWYZGu5GzmUOSu4dOFm-17" value="finish&lt;br&gt;" style="shape=tape;whiteSpace=wrap;html=1;" vertex="1" parent="1">
          <mxGeometry x="760" y="390" width="40" height="60" as="geometry" />
        </mxCell>
        <mxCell id="ZaWYZGu5GzmUOSu4dOFm-18" value="process 3" style="rounded=0;whiteSpace=wrap;html=1;" vertex="1" parent="1">
          <mxGeometry x="80" y="510" width="130" height="40" as="geometry" />
        </mxCell>
        <mxCell id="ZaWYZGu5GzmUOSu4dOFm-20" value="" style="endArrow=none;html=1;strokeWidth=4;dashed=1;strokeColor=#FF0000;exitX=1;exitY=0.5;exitDx=0;exitDy=0;" edge="1" parent="1" source="ZaWYZGu5GzmUOSu4dOFm-18">
          <mxGeometry width="50" height="50" relative="1" as="geometry">
            <mxPoint x="300" y="529.5" as="sourcePoint" />
            <mxPoint x="440" y="530" as="targetPoint" />
          </mxGeometry>
        </mxCell>
        <mxCell id="ZaWYZGu5GzmUOSu4dOFm-21" value="" style="endArrow=none;html=1;strokeWidth=4;" edge="1" parent="1">
          <mxGeometry width="50" height="50" relative="1" as="geometry">
            <mxPoint x="450" y="530" as="sourcePoint" />
            <mxPoint x="440" y="529.5" as="targetPoint" />
            <Array as="points">
              <mxPoint x="540" y="530" />
            </Array>
          </mxGeometry>
        </mxCell>
        <mxCell id="ZaWYZGu5GzmUOSu4dOFm-22" value="" style="endArrow=none;html=1;strokeWidth=4;dashed=1;strokeColor=#FF3333;" edge="1" parent="1">
          <mxGeometry width="50" height="50" relative="1" as="geometry">
            <mxPoint x="550" y="530" as="sourcePoint" />
            <mxPoint x="670" y="530" as="targetPoint" />
          </mxGeometry>
        </mxCell>
        <mxCell id="ZaWYZGu5GzmUOSu4dOFm-23" value="" style="endArrow=none;html=1;strokeWidth=4;" edge="1" parent="1">
          <mxGeometry width="50" height="50" relative="1" as="geometry">
            <mxPoint x="670" y="530" as="sourcePoint" />
            <mxPoint x="710" y="530" as="targetPoint" />
            <Array as="points" />
          </mxGeometry>
        </mxCell>
        <mxCell id="ZaWYZGu5GzmUOSu4dOFm-24" value="finish&lt;br&gt;" style="shape=tape;whiteSpace=wrap;html=1;" vertex="1" parent="1">
          <mxGeometry x="730" y="480" width="40" height="60" as="geometry" />
        </mxCell>
        <mxCell id="ZaWYZGu5GzmUOSu4dOFm-25" value="" style="endArrow=none;dashed=1;html=1;dashPattern=1 3;strokeWidth=2;" edge="1" parent="1">
          <mxGeometry width="50" height="50" relative="1" as="geometry">
            <mxPoint x="280" y="430" as="sourcePoint" />
            <mxPoint x="280" y="350" as="targetPoint" />
          </mxGeometry>
        </mxCell>
        <mxCell id="ZaWYZGu5GzmUOSu4dOFm-26" value="" style="endArrow=none;dashed=1;html=1;dashPattern=1 3;strokeWidth=2;" edge="1" parent="1">
          <mxGeometry width="50" height="50" relative="1" as="geometry">
            <mxPoint x="360" y="430" as="sourcePoint" />
            <mxPoint x="360" y="350" as="targetPoint" />
          </mxGeometry>
        </mxCell>
        <mxCell id="ZaWYZGu5GzmUOSu4dOFm-27" value="" style="endArrow=none;dashed=1;html=1;dashPattern=1 3;strokeWidth=2;" edge="1" parent="1">
          <mxGeometry width="50" height="50" relative="1" as="geometry">
            <mxPoint x="440" y="520" as="sourcePoint" />
            <mxPoint x="440" y="350" as="targetPoint" />
          </mxGeometry>
        </mxCell>
        <mxCell id="ZaWYZGu5GzmUOSu4dOFm-28" value="" style="endArrow=none;dashed=1;html=1;dashPattern=1 3;strokeWidth=2;" edge="1" parent="1">
          <mxGeometry width="50" height="50" relative="1" as="geometry">
            <mxPoint x="540" y="520" as="sourcePoint" />
            <mxPoint x="540" y="350" as="targetPoint" />
          </mxGeometry>
        </mxCell>
        <mxCell id="ZaWYZGu5GzmUOSu4dOFm-29" value="" style="endArrow=none;dashed=1;html=1;dashPattern=1 3;strokeWidth=2;" edge="1" parent="1">
          <mxGeometry width="50" height="50" relative="1" as="geometry">
            <mxPoint x="670" y="530" as="sourcePoint" />
            <mxPoint x="670" y="440" as="targetPoint" />
          </mxGeometry>
        </mxCell>
        <mxCell id="ZaWYZGu5GzmUOSu4dOFm-30" value="" style="endArrow=none;dashed=1;html=1;dashPattern=1 3;strokeWidth=2;" edge="1" parent="1">
          <mxGeometry width="50" height="50" relative="1" as="geometry">
            <mxPoint x="710" y="530" as="sourcePoint" />
            <mxPoint x="710" y="440" as="targetPoint" />
          </mxGeometry>
        </mxCell>
        <mxCell id="ZaWYZGu5GzmUOSu4dOFm-31" value="" style="endArrow=classic;html=1;strokeWidth=2;" edge="1" parent="1">
          <mxGeometry width="50" height="50" relative="1" as="geometry">
            <mxPoint x="370" y="370" as="sourcePoint" />
            <mxPoint x="440" y="290" as="targetPoint" />
          </mxGeometry>
        </mxCell>
        <mxCell id="ZaWYZGu5GzmUOSu4dOFm-32" value="进程切换" style="text;html=1;strokeColor=none;fillColor=none;align=center;verticalAlign=middle;whiteSpace=wrap;rounded=0;" vertex="1" parent="1">
          <mxGeometry x="300" y="390" width="60" height="20" as="geometry" />
        </mxCell>
      </root>
    </mxGraphModel>
  </diagram>
</mxfile>
